<svg width="27" height="15" viewBox="0 0 27 15" fill="none" xmlns="http://www.w3.org/2000/svg">
<rect width="27" height="15" fill="white"/>
<rect y="14" width="27" height="1" fill="#FF0000"/>
<rect y="12" width="27" height="1" fill="#FF0000"/>
<rect y="10" width="27" height="1" fill="#FF0000"/>
<rect y="8" width="27" height="1" fill="#FF0000"/>
<rect y="6" width="27" height="1" fill="#FF0000"/>
<rect y="4" width="27" height="1" fill="#FF0000"/>
<rect y="2" width="27" height="1" fill="#FF0000"/>
<rect width="27" height="1" fill="#FF0000"/>
<rect width="13" height="8" fill="#0047FF"/>
<rect x="1" y="1" width="1" height="1" fill="white"/>
<rect x="2" y="2" width="1" height="1" fill="white"/>
<rect x="3" y="1" width="1" height="1" fill="white"/>
<rect x="4" y="2" width="1" height="1" fill="white"/>
<rect x="5" y="1" width="1" height="1" fill="white"/>
<rect x="6" y="2" width="1" height="1" fill="white"/>
<rect x="8" y="2" width="1" height="1" fill="white"/>
<rect x="7" y="1" width="1" height="1" fill="white"/>
<rect x="1" y="3" width="1" height="1" fill="white"/>
<rect x="3" y="3" width="1" height="1" fill="white"/>
<rect x="2" y="4" width="1" height="1" fill="white"/>
<rect x="3" y="5" width="1" height="1" fill="white"/>
<rect x="1" y="5" width="1" height="1" fill="white"/>
<rect x="6" y="6" width="1" height="1" fill="white"/>
<rect x="4" y="4" width="1" height="1" fill="white"/>
<rect x="2" y="6" width="1" height="1" fill="white"/>
<rect x="4" y="6" width="1" height="1" fill="white"/>
<rect x="5" y="3" width="1" height="1" fill="white"/>
<rect x="6" y="4" width="1" height="1" fill="white"/>
<rect x="7" y="3" width="1" height="1" fill="white"/>
<rect x="5" y="5" width="1" height="1" fill="white"/>
<rect x="7" y="5" width="1" height="1" fill="white"/>
<rect x="8" y="4" width="1" height="1" fill="white"/>
<rect x="9" y="5" width="1" height="1" fill="white"/>
<rect x="11" y="5" width="1" height="1" fill="white"/>
<rect x="10" y="4" width="1" height="1" fill="white"/>
<rect x="8" y="6" width="1" height="1" fill="white"/>
<rect x="10" y="6" width="1" height="1" fill="white"/>
<rect x="9" y="1" width="1" height="1" fill="white"/>
<rect x="10" y="2" width="1" height="1" fill="white"/>
<rect x="11" y="1" width="1" height="1" fill="white"/>
<rect x="9" y="3" width="1" height="1" fill="white"/>
<rect x="11" y="3" width="1" height="1" fill="white"/>
</svg>
